<svg width="221.979492" height="94.998413" viewBox="0 0 221.979 94.9984" fill="none" xmlns="http://www.w3.org/2000/svg" xmlns:xlink="http://www.w3.org/1999/xlink">
	<desc>
			Created with Pixso.
	</desc>
	<defs>
		<filter id="filter_4_22_dd" x="0.000000" y="0.000000" width="221.979492" height="94.998413" filterUnits="userSpaceOnUse" color-interpolation-filters="sRGB">
			<feFlood flood-opacity="0" result="BackgroundImageFix"/>
			<feBlend mode="normal" in="SourceGraphic" in2="BackgroundImageFix" result="shape"/>
			<feColorMatrix in="SourceAlpha" type="matrix" values="0 0 0 0 0 0 0 0 0 0 0 0 0 0 0 0 0 0 127 0" result="hardAlpha"/>
			<feOffset dx="0" dy="4"/>
			<feGaussianBlur stdDeviation="1.33333"/>
			<feComposite in2="hardAlpha" operator="arithmetic" k2="-1" k3="1"/>
			<feColorMatrix type="matrix" values="0 0 0 0 0 0 0 0 0 0 0 0 0 0 0 0 0 0 0.25 0"/>
			<feBlend mode="normal" in2="shape" result="effect_innerShadow_1"/>
		</filter>
		<linearGradient x1="85.111046" y1="131.148422" x2="85.904320" y2="195.389145" id="paint_linear_4_11_0" gradientUnits="userSpaceOnUse">
			<stop stop-color="#E4F4FE"/>
			<stop offset="1.000000" stop-color="#FFFFFF"/>
		</linearGradient>
	</defs>
	<g filter="url(#filter_4_22_dd)">
		<path id="path14" d="M145.5 26.63L148.02 56.86C90.48 55.46 85.97 71.27 0 64.51C9.61 59.19 13.61 55.86 15.86 51.09C7.7 45.96 5.4 41.9 0.65 35.4C30.79 42.29 50.05 38.23 80.91 33.78C111.78 29.33 145.5 26.63 145.5 26.63Z" fill="#738899" fill-opacity="1.000000" fill-rule="nonzero"/>
		<path id="path14" d="M148.02 56.86C90.48 55.46 85.97 71.27 0 64.51C9.61 59.19 13.61 55.86 15.86 51.09C7.7 45.96 5.4 41.9 0.65 35.4C30.79 42.29 50.05 38.23 80.91 33.78C111.78 29.33 145.5 26.63 145.5 26.63L148.02 56.86Z" stroke="#000000" stroke-opacity="0" stroke-width="1.333333"/>
		<path id="path16" d="M76.47 26.63L73.95 56.86C131.49 55.46 136 71.27 221.97 64.51C212.36 59.19 208.36 55.86 206.11 51.09C214.27 45.96 216.57 41.9 221.32 35.4C191.18 42.29 171.92 38.23 141.06 33.78C110.19 29.33 76.47 26.63 76.47 26.63Z" fill="#738899" fill-opacity="1.000000" fill-rule="nonzero"/>
		<path id="path16" d="M73.95 56.86C131.49 55.46 136 71.27 221.97 64.51C212.36 59.19 208.36 55.86 206.11 51.09C214.27 45.96 216.57 41.9 221.32 35.4C191.18 42.29 171.92 38.23 141.06 33.78C110.19 29.33 76.47 26.63 76.47 26.63L73.95 56.86Z" stroke="#000000" stroke-opacity="0" stroke-width="1.333333"/>
		<mask id="mask4_9" mask-type="alpha" maskUnits="userSpaceOnUse" x="36.218506" y="0.000000" width="146.261230" height="94.998413">
			<path id="path22" d="M36.21 26.4L112.48 0L182.48 26.4L178.82 77.01L112.48 94.99L39.87 77.01L36.21 26.4Z" fill="#000000" fill-opacity="1.000000" fill-rule="nonzero"/>
		</mask>
		<g mask="url(#mask4_9)">
			<path id="path32" d="M36.21 26.4L112.48 0L182.48 26.4L178.82 77.01L112.48 94.99L39.87 77.01L36.21 26.4Z" fill="url(#paint_linear_4_11_0)" fill-opacity="1.000000" fill-rule="nonzero"/>
			<path id="path32" d="M112.48 0L182.48 26.4L178.82 77.01L112.48 94.99L39.87 77.01L36.21 26.4L112.48 0Z" stroke="#000000" stroke-opacity="0" stroke-width="1.333333"/>
		</g>
		<path id="path34" d="M31.08 44.77L190.69 44.77L190.69 69.3L31.08 69.3L31.08 44.77Z" fill="#2E404E" fill-opacity="1.000000" fill-rule="nonzero"/>
		<path id="path34" d="M190.69 44.77L190.69 69.3L31.08 69.3L31.08 44.77L190.69 44.77Z" stroke="#000000" stroke-opacity="0" stroke-width="1.333333"/>
		<path id="path36" d="M46.46 61.55L46.09 61.55C45.82 61.55 45.61 61.51 45.47 61.44C45.3 61.34 45.07 60.97 44.77 60.34L41.25 52.99L40.35 52.99L40.35 52.59L45.15 52.59L45.15 52.99L43.74 52.99L46.78 59.26L49.47 52.99L48.04 52.99L48.04 52.59L51.07 52.59L51.07 52.99L50.18 52.99L46.46 61.55ZM58.58 61.48L53.24 61.48L53.24 61.08L54.67 61.08L54.67 52.99L53.24 52.99L53.24 52.59L58.58 52.59L58.58 52.99L57.16 52.99L57.16 61.08L58.1 61.08C58.35 61.1 58.51 61.23 58.58 61.48ZM66.44 61.48L61.11 61.48L61.11 61.08L62.53 61.08L62.53 52.99L61.11 52.99L61.11 52.59L66.44 52.59L66.44 52.99L65.02 52.99L65.02 56.81L70.11 52.99L68.69 52.99L68.69 52.59L71.97 52.59C71.97 52.64 71.97 52.69 71.96 52.74C71.93 52.91 71.78 52.99 71.49 52.99C71.42 52.99 71.35 53 71.26 53.01C71.03 53.06 70.64 53.28 70.11 53.69L67.4 55.72L71.74 61.08L71.9 61.08C72.15 61.1 72.31 61.23 72.38 61.48L68.99 61.49L65.59 57.1L65.02 57.52L65.02 61.08L65.96 61.08C66.21 61.1 66.37 61.23 66.44 61.48ZM79.89 61.48L74.56 61.48L74.56 61.08L75.98 61.08L75.98 52.99L74.56 52.99L74.56 52.59L79.89 52.59L79.89 52.99L78.47 52.99L78.47 61.08L79.41 61.08C79.66 61.1 79.82 61.23 79.89 61.48ZM90.2 52.99L90.2 52.59L93.79 52.59L93.79 52.99L92.37 52.99L92.37 61.4L91.35 61.55L84.51 54.9L84.51 61.08L85.54 61.08C85.79 61.1 85.95 61.23 86.02 61.48L82.34 61.48L82.34 61.08L83.76 61.08L83.76 52.99L82.34 52.99L82.34 52.59L85.34 52.59L91.62 58.72L91.62 52.99L90.2 52.99ZM102.58 57.39L107.7 57.39L107.7 57.79L106.54 57.79L106.54 61.48L104.39 61.17C103.61 61.46 102.74 61.61 101.8 61.61C100.6 61.61 99.54 61.37 98.61 60.89C97.08 60.06 96.32 58.78 96.32 57C96.32 55.63 96.81 54.53 97.78 53.7C98.8 52.86 100.12 52.44 101.74 52.44C102.64 52.44 103.5 52.58 104.32 52.87L105.99 52.59L106.06 55.73L105.51 55.73C105.51 55.72 105.51 55.71 105.51 55.7C105.06 53.84 103.99 52.9 102.29 52.9C102.15 52.9 102.01 52.91 101.87 52.92C100.01 53.09 99.08 54.47 99.08 57.06C99.08 57.94 99.17 58.66 99.36 59.26C99.78 60.52 100.71 61.15 102.15 61.15C102.9 61.15 103.55 60.97 104.09 60.62L104.09 57.79L102.58 57.79L102.58 57.39ZM120.85 61.48L115.52 61.48L115.52 61.08L116.94 61.08L116.94 52.99L115.52 52.99L115.52 52.59L120.85 52.59L120.85 52.99L119.43 52.99L119.43 56.68L123.95 56.68L123.95 52.99L122.53 52.99L122.53 52.59L127.86 52.59L127.86 52.99L126.44 52.99L126.44 61.08L127.38 61.08C127.63 61.1 127.79 61.23 127.86 61.48L122.53 61.48L122.53 61.08L123.95 61.08L123.95 57.12L119.43 57.12L119.43 61.08L120.37 61.08C120.62 61.1 120.78 61.23 120.85 61.48ZM136.35 52.44C137.69 52.44 138.86 52.75 139.85 53.35C141.24 54.2 141.93 55.43 141.93 57.06C141.93 58.41 141.38 59.51 140.28 60.38C139.2 61.21 137.87 61.62 136.3 61.62C134.91 61.62 133.7 61.29 132.67 60.63C131.33 59.77 130.66 58.55 130.66 57C130.66 55.65 131.22 54.55 132.35 53.69C133.44 52.86 134.77 52.44 136.35 52.44ZM136.35 61.2C136.89 61.2 137.35 61.1 137.72 60.9C138.67 60.4 139.14 59.1 139.14 56.99C139.14 56.1 139.05 55.36 138.87 54.76C138.49 53.5 137.63 52.87 136.3 52.87C135.89 52.87 135.53 52.93 135.21 53.05C134.04 53.47 133.45 54.81 133.45 57.06C133.45 58.25 133.6 59.17 133.89 59.82C134.32 60.74 135.14 61.2 136.35 61.2ZM144.55 52.99L144.55 52.59L149.89 52.59L149.89 52.99L148.46 52.99L148.46 58.1C148.46 58.66 148.52 59.15 148.62 59.56C148.91 60.64 149.65 61.18 150.85 61.18C152.74 61.17 153.7 60.15 153.71 58.1L153.71 52.99L152.29 52.99L152.29 52.59L155.79 52.59L155.79 52.99L154.37 52.99L154.37 58.01C154.37 58.72 154.27 59.31 154.08 59.8C153.59 61.02 152.38 61.62 150.47 61.62C147.5 61.62 146 60.48 145.97 58.22L145.97 52.99L144.55 52.99ZM166.89 59C166.89 59.66 166.61 60.21 166.06 60.67C165.25 61.31 164.09 61.62 162.59 61.62C161.3 61.62 160.19 61.38 159.28 60.87C159.28 61.04 159.27 61.17 159.25 61.27C159.19 61.43 159 61.51 158.68 61.51L158.68 58.37L159.37 58.37C159.42 58.89 159.55 59.36 159.76 59.76C160.27 60.72 161.16 61.2 162.41 61.2C162.74 61.2 163.05 61.16 163.32 61.08C164.08 60.84 164.46 60.37 164.46 59.66C164.46 59.45 164.4 59.25 164.3 59.05C164.05 58.63 163.41 58.21 162.39 57.76C161.26 57.28 160.62 56.99 160.47 56.92C159.35 56.33 158.78 55.63 158.78 54.82C158.78 54.26 159.02 53.78 159.48 53.38C160.2 52.75 161.28 52.44 162.71 52.44C163.8 52.44 164.84 52.64 165.83 53.02C165.83 52.93 165.83 52.86 165.84 52.78C165.9 52.6 166.1 52.5 166.43 52.5L166.43 55.18L165.74 55.18C165.72 54.65 165.57 54.19 165.27 53.81C164.79 53.2 164.06 52.89 163.09 52.89C162.84 52.89 162.6 52.92 162.38 52.97C161.7 53.16 161.36 53.55 161.36 54.13C161.36 54.36 161.42 54.58 161.54 54.78C161.79 55.21 162.41 55.64 163.41 56.07C164.5 56.55 165.12 56.83 165.27 56.9C166.35 57.49 166.89 58.19 166.89 59ZM178.76 55.43L178.24 55.43L177.85 54.42C177.82 54.32 177.78 54.24 177.73 54.14C177.36 53.38 176.69 52.99 175.72 52.99L173.71 52.99L173.71 56.68L177.12 56.68L177.12 57.12L173.71 57.12L173.71 61.08L175.72 61.08C175.94 61.08 176.16 61.06 176.36 61.02C177.03 60.87 177.53 60.42 177.83 59.66L178.24 58.63L178.76 58.63L178.69 61.48L169.8 61.48L169.8 61.08L171.22 61.08L171.22 52.99L169.8 52.99L169.8 52.59L178.69 52.59L178.76 55.43Z" fill="#FFFFFF" fill-opacity="1.000000" fill-rule="nonzero"/>
		<path id="path36" d="M46.09 61.55C45.82 61.55 45.61 61.51 45.47 61.44C45.3 61.34 45.07 60.97 44.77 60.34L41.25 52.99L40.35 52.99L40.35 52.59L45.15 52.59L45.15 52.99L43.74 52.99L46.78 59.26L49.47 52.99L48.04 52.99L48.04 52.59L51.07 52.59L51.07 52.99L50.18 52.99L46.46 61.55L46.09 61.55ZM53.24 61.48L53.24 61.08L54.67 61.08L54.67 52.99L53.24 52.99L53.24 52.59L58.58 52.59L58.58 52.99L57.16 52.99L57.16 61.08L58.1 61.08C58.35 61.1 58.51 61.23 58.58 61.48L53.24 61.48ZM61.11 61.48L61.11 61.08L62.53 61.08L62.53 52.99L61.11 52.99L61.11 52.59L66.44 52.59L66.44 52.99L65.02 52.99L65.02 56.81L70.11 52.99L68.69 52.99L68.69 52.59L71.97 52.59C71.97 52.64 71.97 52.69 71.96 52.74C71.93 52.91 71.78 52.99 71.49 52.99C71.42 52.99 71.35 53 71.26 53.01C71.03 53.06 70.64 53.28 70.11 53.69L67.4 55.72L71.74 61.08L71.9 61.08C72.15 61.1 72.31 61.23 72.38 61.48L68.99 61.49L65.59 57.1L65.02 57.52L65.02 61.08L65.96 61.08C66.21 61.1 66.37 61.23 66.44 61.48L61.11 61.48ZM74.56 61.48L74.56 61.08L75.98 61.08L75.98 52.99L74.56 52.99L74.56 52.59L79.89 52.59L79.89 52.99L78.47 52.99L78.47 61.08L79.41 61.08C79.66 61.1 79.82 61.23 79.89 61.48L74.56 61.48ZM90.2 52.59L93.79 52.59L93.79 52.99L92.37 52.99L92.37 61.4L91.35 61.55L84.51 54.9L84.51 61.08L85.54 61.08C85.79 61.1 85.95 61.23 86.02 61.48L82.34 61.48L82.34 61.08L83.76 61.08L83.76 52.99L82.34 52.99L82.34 52.59L85.34 52.59L91.62 58.72L91.62 52.99L90.2 52.99L90.2 52.59ZM107.7 57.39L107.7 57.79L106.54 57.79L106.54 61.48L104.39 61.17C103.61 61.46 102.74 61.61 101.8 61.61C100.6 61.61 99.54 61.37 98.61 60.89C97.08 60.06 96.32 58.78 96.32 57C96.32 55.63 96.81 54.53 97.78 53.7C98.8 52.86 100.12 52.44 101.74 52.44C102.64 52.44 103.5 52.58 104.32 52.87L105.99 52.59L106.06 55.73L105.51 55.73C105.51 55.72 105.51 55.71 105.51 55.7C105.06 53.84 103.99 52.9 102.29 52.9C102.15 52.9 102.01 52.91 101.87 52.92C100.01 53.09 99.08 54.47 99.08 57.06C99.08 57.94 99.17 58.66 99.36 59.26C99.78 60.52 100.71 61.15 102.15 61.15C102.9 61.15 103.55 60.97 104.09 60.62L104.09 57.79L102.58 57.79L102.58 57.39L107.7 57.39ZM115.52 61.48L115.52 61.08L116.94 61.08L116.94 52.99L115.52 52.99L115.52 52.59L120.85 52.59L120.85 52.99L119.43 52.99L119.43 56.68L123.95 56.68L123.95 52.99L122.53 52.99L122.53 52.59L127.86 52.59L127.86 52.99L126.44 52.99L126.44 61.08L127.38 61.08C127.63 61.1 127.79 61.23 127.86 61.48L122.53 61.48L122.53 61.08L123.95 61.08L123.95 57.12L119.43 57.12L119.43 61.08L120.37 61.08C120.62 61.1 120.78 61.23 120.85 61.48L115.52 61.48ZM139.85 53.35C141.24 54.2 141.93 55.43 141.93 57.06C141.93 58.41 141.38 59.51 140.28 60.38C139.2 61.21 137.87 61.62 136.3 61.62C134.91 61.62 133.7 61.29 132.67 60.63C131.33 59.77 130.66 58.55 130.66 57C130.66 55.65 131.22 54.55 132.35 53.69C133.44 52.86 134.77 52.44 136.35 52.44C137.69 52.44 138.86 52.75 139.85 53.35ZM137.72 60.9C138.67 60.4 139.14 59.1 139.14 56.99C139.14 56.1 139.05 55.36 138.87 54.76C138.49 53.5 137.63 52.87 136.3 52.87C135.89 52.87 135.53 52.93 135.21 53.05C134.04 53.47 133.45 54.81 133.45 57.06C133.45 58.25 133.6 59.17 133.89 59.82C134.32 60.74 135.14 61.2 136.35 61.2C136.89 61.2 137.35 61.1 137.72 60.9ZM144.55 52.59L149.89 52.59L149.89 52.99L148.46 52.99L148.46 58.1C148.46 58.66 148.52 59.15 148.62 59.56C148.91 60.64 149.65 61.18 150.85 61.18C152.74 61.17 153.7 60.15 153.71 58.1L153.71 52.99L152.29 52.99L152.29 52.59L155.79 52.59L155.79 52.99L154.37 52.99L154.37 58.01C154.37 58.72 154.27 59.31 154.08 59.8C153.59 61.02 152.38 61.62 150.47 61.62C147.5 61.62 146 60.48 145.97 58.22L145.97 52.99L144.55 52.99L144.55 52.59ZM166.06 60.67C165.25 61.31 164.09 61.62 162.59 61.62C161.3 61.62 160.19 61.38 159.28 60.87C159.28 61.04 159.27 61.17 159.25 61.27C159.19 61.43 159 61.51 158.68 61.51L158.68 58.37L159.37 58.37C159.42 58.89 159.55 59.36 159.76 59.76C160.27 60.72 161.16 61.2 162.41 61.2C162.74 61.2 163.05 61.16 163.32 61.08C164.08 60.84 164.46 60.37 164.46 59.66C164.46 59.45 164.4 59.25 164.3 59.05C164.05 58.63 163.41 58.21 162.39 57.76C161.26 57.28 160.62 56.99 160.47 56.92C159.35 56.33 158.78 55.63 158.78 54.82C158.78 54.26 159.02 53.78 159.48 53.38C160.2 52.75 161.28 52.44 162.71 52.44C163.8 52.44 164.84 52.64 165.83 53.02C165.83 52.93 165.83 52.86 165.84 52.78C165.9 52.6 166.1 52.5 166.43 52.5L166.43 55.18L165.74 55.18C165.72 54.65 165.57 54.19 165.27 53.81C164.79 53.2 164.06 52.89 163.09 52.89C162.84 52.89 162.6 52.92 162.38 52.97C161.7 53.16 161.36 53.55 161.36 54.13C161.36 54.36 161.42 54.58 161.54 54.78C161.79 55.21 162.41 55.64 163.41 56.07C164.5 56.55 165.12 56.83 165.27 56.9C166.35 57.49 166.89 58.19 166.89 59C166.89 59.66 166.61 60.21 166.06 60.67ZM178.24 55.43L177.85 54.42C177.82 54.32 177.78 54.24 177.73 54.14C177.36 53.38 176.69 52.99 175.72 52.99L173.71 52.99L173.71 56.68L177.12 56.68L177.12 57.12L173.71 57.12L173.71 61.08L175.72 61.08C175.94 61.08 176.16 61.06 176.36 61.02C177.03 60.87 177.53 60.42 177.83 59.66L178.24 58.63L178.76 58.63L178.69 61.48L169.8 61.48L169.8 61.08L171.22 61.08L171.22 52.99L169.8 52.99L169.8 52.59L178.69 52.59L178.76 55.43L178.24 55.43Z" stroke="#000000" stroke-opacity="0" stroke-width="1.333333"/>
		<path id="path38" d="M79.06 78.1L79.06 74.2C79.06 74 78.91 73.9 78.62 73.87L78.34 73.85C78.27 73.84 78.24 73.8 78.24 73.74C78.24 73.67 78.28 73.64 78.37 73.64L79.31 73.66L80.06 73.64C80.16 73.64 80.21 73.67 80.21 73.74C80.21 73.8 80.17 73.84 80.08 73.85L79.92 73.87C79.66 73.91 79.53 74.02 79.53 74.2L79.53 79.29C79.53 79.35 79.5 79.38 79.43 79.38L79.3 79.38C79.14 79.38 79 79.32 78.89 79.19L74.82 74.85C74.81 74.85 74.79 74.84 74.76 74.84C74.74 74.84 74.72 74.86 74.72 74.92L74.72 78.76C74.72 78.94 74.85 79.05 75.11 79.09L75.27 79.11C75.36 79.12 75.4 79.16 75.4 79.22C75.4 79.29 75.35 79.32 75.25 79.32L74.5 79.3L73.56 79.32C73.47 79.32 73.43 79.29 73.43 79.22C73.43 79.16 73.46 79.12 73.53 79.11L73.81 79.09C74.11 79.06 74.26 78.96 74.26 78.76L74.26 74.2C74.26 74 74.13 73.9 73.87 73.87L73.7 73.86C73.62 73.84 73.58 73.81 73.58 73.74C73.58 73.68 73.63 73.64 73.73 73.64L74.5 73.66C74.69 73.67 74.83 73.72 74.92 73.82L78.95 78.12C78.97 78.14 78.99 78.14 79.02 78.14C79.05 78.14 79.06 78.13 79.06 78.1ZM82.69 77.08L84.84 77.08C84.91 77.08 84.94 77.05 84.91 76.99L83.76 74.52L82.61 77C82.59 77.06 82.62 77.08 82.69 77.08ZM81.79 78.76C81.78 78.79 81.77 78.83 81.77 78.88C81.77 78.91 81.8 78.96 81.85 79.01C81.9 79.06 81.97 79.09 82.06 79.09L82.27 79.11C82.36 79.12 82.4 79.15 82.4 79.22C82.4 79.29 82.35 79.33 82.25 79.33L81.41 79.3L80.53 79.33C80.44 79.33 80.4 79.3 80.4 79.22C80.4 79.15 80.43 79.11 80.51 79.11L80.69 79.09C80.97 79.07 81.15 78.96 81.25 78.76L83.73 73.67C83.76 73.61 83.83 73.58 83.95 73.58C84.08 73.58 84.16 73.61 84.2 73.67L86.67 78.76C86.75 78.96 86.94 79.07 87.22 79.09L87.42 79.11C87.45 79.11 87.47 79.12 87.49 79.14C87.51 79.17 87.52 79.18 87.52 79.21C87.52 79.29 87.47 79.33 87.38 79.33L86.27 79.3L85.28 79.33C85.19 79.33 85.14 79.3 85.14 79.23C85.14 79.15 85.18 79.12 85.26 79.11L85.48 79.09C85.56 79.09 85.63 79.06 85.68 79.01C85.74 78.97 85.77 78.92 85.77 78.88C85.77 78.83 85.76 78.79 85.74 78.76L85.17 77.53C85.15 77.48 85.1 77.45 85.02 77.45L82.51 77.45C82.44 77.45 82.39 77.48 82.36 77.53L81.79 78.76ZM90.44 74.25L90.44 78.76C90.44 78.86 90.48 78.94 90.57 79C90.65 79.05 90.75 79.09 90.88 79.09L91.16 79.11C91.23 79.11 91.27 79.15 91.27 79.22C91.27 79.25 91.26 79.28 91.22 79.3C91.2 79.31 91.17 79.33 91.14 79.33L90.05 79.3L88.85 79.33C88.82 79.33 88.78 79.31 88.75 79.3C88.73 79.28 88.71 79.25 88.71 79.22C88.71 79.15 88.75 79.11 88.83 79.11L89.19 79.09C89.31 79.09 89.41 79.05 89.5 79C89.58 78.94 89.62 78.86 89.62 78.76L89.62 74.25C89.62 74.1 89.54 74.03 89.38 74.03L88.57 74.03C88.25 74.03 88.01 74.1 87.82 74.25C87.64 74.39 87.5 74.6 87.4 74.88C87.36 74.96 87.31 75 87.24 75C87.17 75 87.12 74.99 87.09 74.96C87.06 74.93 87.05 74.89 87.05 74.85L87.13 73.82C87.14 73.71 87.21 73.66 87.34 73.66L92.69 73.66C92.83 73.66 92.9 73.73 92.91 73.86L93.01 74.85C93.02 74.9 93.01 74.93 92.97 74.96C92.94 74.99 92.89 75 92.82 75C92.75 75 92.7 74.96 92.66 74.88C92.55 74.59 92.4 74.38 92.22 74.25C92.05 74.1 91.8 74.03 91.5 74.03L90.68 74.03C90.52 74.03 90.44 74.1 90.44 74.25ZM94.15 77.23L94.15 74.2C94.15 74 94 73.89 93.71 73.87L93.43 73.85C93.36 73.84 93.32 73.81 93.32 73.74C93.32 73.67 93.37 73.63 93.46 73.63L94.55 73.66L95.51 73.63C95.6 73.63 95.65 73.66 95.65 73.73C95.65 73.81 95.61 73.84 95.52 73.85L95.36 73.87C95.1 73.91 94.97 74.02 94.97 74.2L94.97 77.23C94.97 77.74 95.15 78.13 95.51 78.4C95.88 78.68 96.35 78.82 96.93 78.82C97.53 78.82 98 78.68 98.36 78.39C98.73 78.11 98.91 77.72 98.91 77.23L98.91 74.2C98.91 74.02 98.79 73.91 98.53 73.87L98.36 73.85C98.28 73.84 98.24 73.8 98.24 73.74C98.24 73.67 98.29 73.64 98.38 73.64L99.14 73.66L100.07 73.64C100.16 73.64 100.21 73.67 100.21 73.74C100.21 73.8 100.17 73.84 100.1 73.85L99.82 73.87C99.53 73.9 99.38 74 99.38 74.2L99.38 77.23C99.38 77.88 99.13 78.41 98.64 78.81C98.16 79.19 97.54 79.38 96.78 79.38C96.02 79.38 95.39 79.18 94.9 78.78C94.4 78.38 94.15 77.86 94.15 77.23ZM104.85 75.96C105.15 75.75 105.3 75.47 105.3 75.14C105.3 74.8 105.16 74.53 104.86 74.33C104.56 74.13 104.19 74.02 103.74 74.02L102.83 74.02C102.57 74.02 102.44 74.13 102.44 74.35L102.44 76.16C102.44 76.23 102.48 76.26 102.55 76.26L103.74 76.26C104.18 76.26 104.55 76.16 104.85 75.96ZM104.07 73.66C104.69 73.66 105.19 73.79 105.58 74.06C105.98 74.32 106.18 74.67 106.18 75.11C106.18 75.53 105.99 75.89 105.59 76.18C105.21 76.46 104.78 76.6 104.3 76.61L104.29 76.62C104.43 76.66 104.53 76.73 104.61 76.83L106.07 78.76C106.2 78.96 106.41 79.06 106.7 79.09L106.88 79.11C106.96 79.12 107 79.15 107 79.22C107 79.29 106.96 79.33 106.86 79.33C106.24 79.31 105.85 79.3 105.7 79.3C105.55 79.3 105.44 79.24 105.35 79.14L103.72 76.88C103.59 76.71 103.45 76.62 103.29 76.62L102.59 76.62C102.49 76.62 102.44 76.66 102.44 76.72L102.44 78.76C102.44 78.86 102.49 78.94 102.57 79C102.65 79.05 102.76 79.09 102.88 79.09L103.29 79.11C103.36 79.11 103.39 79.15 103.39 79.22C103.39 79.3 103.35 79.33 103.26 79.33L102.05 79.3L100.98 79.33C100.89 79.33 100.85 79.3 100.83 79.23C100.83 79.15 100.87 79.12 100.95 79.11L101.23 79.09C101.49 79.08 101.62 78.97 101.62 78.76L101.62 74.2C101.62 74 101.48 73.89 101.18 73.87L100.9 73.85C100.83 73.84 100.79 73.81 100.79 73.74C100.79 73.67 100.84 73.63 100.93 73.63L102.26 73.66L104.07 73.66ZM109.1 77.08L111.26 77.08C111.33 77.08 111.35 77.05 111.32 76.99L110.17 74.52L109.02 77C109 77.06 109.03 77.08 109.1 77.08ZM108.2 78.76C108.19 78.79 108.18 78.83 108.18 78.88C108.18 78.91 108.21 78.96 108.26 79.01C108.31 79.06 108.38 79.09 108.47 79.09L108.69 79.11C108.77 79.12 108.81 79.15 108.81 79.22C108.81 79.29 108.76 79.33 108.67 79.33L107.83 79.3L106.95 79.33C106.86 79.33 106.81 79.3 106.81 79.22C106.81 79.15 106.85 79.11 106.92 79.11L107.1 79.09C107.38 79.07 107.57 78.96 107.66 78.76L110.14 73.67C110.17 73.61 110.24 73.58 110.37 73.58C110.5 73.58 110.58 73.61 110.61 73.67L113.08 78.76C113.16 78.96 113.35 79.07 113.63 79.09L113.83 79.11C113.86 79.11 113.88 79.12 113.9 79.14C113.92 79.17 113.93 79.18 113.93 79.21C113.93 79.29 113.89 79.33 113.8 79.33L112.68 79.3L111.69 79.33C111.6 79.33 111.55 79.3 111.55 79.23C111.55 79.15 111.59 79.12 111.67 79.11L111.89 79.09C111.98 79.09 112.04 79.06 112.1 79.01C112.15 78.97 112.18 78.92 112.18 78.88C112.18 78.83 112.17 78.79 112.15 78.76L111.58 77.53C111.56 77.48 111.51 77.45 111.43 77.45L108.93 77.45C108.85 77.45 108.8 77.48 108.77 77.53L108.2 78.76ZM115.77 74.2L115.77 78.55C115.77 78.67 115.82 78.76 115.9 78.83C115.99 78.89 116.11 78.92 116.25 78.92L117.65 78.92C117.99 78.92 118.28 78.86 118.53 78.73C118.77 78.58 118.94 78.39 119.03 78.12C119.06 78.03 119.13 77.99 119.23 77.99C119.33 77.99 119.38 78.04 119.37 78.14L119.21 78.97C119.2 79.07 119.15 79.14 119.08 79.21C119 79.26 118.9 79.3 118.78 79.3L115.35 79.3L114.26 79.33C114.17 79.33 114.12 79.3 114.12 79.22C114.12 79.15 114.16 79.11 114.23 79.11L114.51 79.09C114.64 79.09 114.74 79.05 114.83 79C114.91 78.94 114.95 78.86 114.95 78.76L114.95 74.2C114.95 74 114.81 73.89 114.51 73.87L114.23 73.85C114.16 73.84 114.12 73.81 114.12 73.74C114.12 73.67 114.17 73.63 114.26 73.63L115.35 73.66L116.31 73.63C116.4 73.63 116.45 73.66 116.45 73.73C116.45 73.81 116.41 73.84 116.32 73.85L116.16 73.87C115.9 73.91 115.77 74.02 115.77 74.2ZM127.21 74.73C127.23 74.82 127.18 74.87 127.07 74.87C126.97 74.87 126.9 74.83 126.86 74.74C126.77 74.49 126.62 74.3 126.43 74.2C126.24 74.08 125.97 74.03 125.63 74.03L124.21 74.03C124.07 74.03 123.95 74.07 123.86 74.14C123.78 74.2 123.74 74.29 123.74 74.41L123.74 76.18C123.74 76.25 123.78 76.29 123.86 76.29L125.56 76.29C125.64 76.29 125.71 76.27 125.76 76.24C125.82 76.2 125.86 76.16 125.87 76.13C125.89 76.09 125.92 76.03 125.95 75.95L125.99 75.84C126.01 75.79 126.05 75.76 126.11 75.76C126.2 75.76 126.25 75.79 126.25 75.86L126.21 76.55L126.25 77.22C126.25 77.3 126.2 77.33 126.12 77.33C126.04 77.33 126 77.3 125.99 77.23L125.96 77.09C125.93 76.95 125.89 76.84 125.83 76.78C125.78 76.71 125.69 76.67 125.56 76.67L123.85 76.67C123.77 76.67 123.74 76.71 123.74 76.78L123.74 78.76C123.74 78.96 123.88 79.07 124.16 79.09L124.45 79.11C124.53 79.11 124.57 79.14 124.57 79.21C124.57 79.29 124.52 79.33 124.42 79.33L123.31 79.3L122.22 79.33C122.13 79.33 122.08 79.3 122.08 79.22C122.08 79.15 122.12 79.11 122.19 79.11L122.47 79.09C122.6 79.09 122.71 79.05 122.79 79C122.87 78.94 122.91 78.86 122.91 78.76L122.91 74.2C122.91 74 122.77 73.89 122.47 73.87L122.19 73.85C122.12 73.85 122.08 73.81 122.08 73.74C122.08 73.67 122.13 73.63 122.22 73.63L123.31 73.66L126.64 73.66C126.77 73.66 126.86 73.69 126.94 73.76C127.02 73.82 127.06 73.89 127.08 73.99L127.21 74.73ZM131.29 73.58C132.31 73.58 133.12 73.84 133.73 74.39C134.35 74.93 134.66 75.61 134.66 76.46C134.66 77.31 134.34 78.01 133.71 78.57C133.09 79.11 132.27 79.38 131.27 79.38C130.27 79.38 129.46 79.11 128.84 78.57C128.21 78.01 127.9 77.32 127.9 76.49C127.9 75.64 128.21 74.95 128.84 74.41C129.46 73.85 130.28 73.58 131.29 73.58ZM133.19 74.84C133 74.57 132.75 74.35 132.42 74.18C132.09 74.02 131.71 73.95 131.27 73.95C130.48 73.95 129.88 74.15 129.44 74.55C129.02 74.94 128.81 75.49 128.81 76.18C128.81 76.89 129 77.53 129.39 78.09C129.57 78.37 129.83 78.59 130.17 78.76C130.5 78.93 130.89 79.01 131.32 79.01C132.08 79.01 132.68 78.81 133.11 78.39C133.54 77.97 133.75 77.4 133.75 76.7C133.75 75.99 133.57 75.37 133.19 74.84ZM139.01 73.58C140.03 73.58 140.85 73.84 141.46 74.39C142.08 74.93 142.39 75.61 142.39 76.46C142.39 77.31 142.07 78.01 141.44 78.57C140.82 79.11 140 79.38 139 79.38C138 79.38 137.19 79.11 136.56 78.57C135.94 78.01 135.63 77.32 135.63 76.49C135.63 75.64 135.94 74.95 136.56 74.41C137.19 73.85 138 73.58 139.01 73.58ZM140.92 74.84C140.73 74.57 140.47 74.35 140.14 74.18C139.82 74.02 139.43 73.95 139 73.95C138.21 73.95 137.6 74.15 137.17 74.55C136.74 74.94 136.53 75.49 136.53 76.18C136.53 76.89 136.73 77.53 137.11 78.09C137.3 78.37 137.56 78.59 137.89 78.76C138.23 78.93 138.61 79.01 139.04 79.01C139.81 79.01 140.41 78.81 140.83 78.39C141.26 77.97 141.48 77.4 141.48 76.7C141.48 75.99 141.29 75.37 140.92 74.84ZM146.16 73.66C147.19 73.66 148.01 73.91 148.62 74.41C149.24 74.91 149.54 75.56 149.54 76.38C149.54 77.2 149.22 77.9 148.59 78.46C147.95 79.02 147.15 79.3 146.16 79.3L144.5 79.3L143.29 79.33C143.2 79.33 143.16 79.3 143.16 79.23C143.16 79.15 143.19 79.12 143.26 79.12L143.54 79.1C143.67 79.09 143.78 79.06 143.86 79.01C143.95 78.95 143.99 78.87 143.99 78.78L143.99 74.2C143.99 74 143.84 73.89 143.54 73.87L143.26 73.85C143.19 73.84 143.16 73.81 143.16 73.74C143.16 73.67 143.2 73.63 143.29 73.63L144.5 73.66L146.16 73.66ZM148.06 74.87C147.87 74.61 147.61 74.41 147.28 74.26C146.95 74.11 146.58 74.03 146.15 74.03L145.28 74.03C145.14 74.03 145.02 74.07 144.93 74.13C144.85 74.2 144.81 74.29 144.81 74.41L144.81 78.55C144.81 78.67 144.85 78.76 144.93 78.83C145.02 78.89 145.14 78.92 145.28 78.92L146.2 78.92C146.94 78.92 147.53 78.71 147.98 78.29C148.42 77.87 148.64 77.32 148.64 76.64C148.64 75.97 148.45 75.37 148.06 74.87Z" fill="#2E404E" fill-opacity="1.000000" fill-rule="nonzero"/>
		<path id="path38" d="M79.06 74.2C79.06 74 78.91 73.9 78.62 73.87L78.34 73.85C78.27 73.84 78.24 73.8 78.24 73.74C78.24 73.67 78.28 73.64 78.37 73.64L79.31 73.66L80.06 73.64C80.16 73.64 80.21 73.67 80.21 73.74C80.21 73.8 80.17 73.84 80.08 73.85L79.92 73.87C79.66 73.91 79.53 74.02 79.53 74.2L79.53 79.29C79.53 79.35 79.5 79.38 79.43 79.38L79.3 79.38C79.14 79.38 79 79.32 78.89 79.19L74.82 74.85C74.81 74.85 74.79 74.84 74.76 74.84C74.74 74.84 74.72 74.86 74.72 74.92L74.72 78.76C74.72 78.94 74.85 79.05 75.11 79.09L75.27 79.11C75.36 79.12 75.4 79.16 75.4 79.22C75.4 79.29 75.35 79.32 75.25 79.32L74.5 79.3L73.56 79.32C73.47 79.32 73.43 79.29 73.43 79.22C73.43 79.16 73.46 79.12 73.53 79.11L73.81 79.09C74.11 79.06 74.26 78.96 74.26 78.76L74.26 74.2C74.26 74 74.13 73.9 73.87 73.87L73.7 73.86C73.62 73.84 73.58 73.81 73.58 73.74C73.58 73.68 73.63 73.64 73.73 73.64L74.5 73.66C74.69 73.67 74.83 73.72 74.92 73.82L78.95 78.12C78.97 78.14 78.99 78.14 79.02 78.14C79.05 78.14 79.06 78.13 79.06 78.1L79.06 74.2ZM84.84 77.08C84.91 77.08 84.94 77.05 84.91 76.99L83.76 74.52L82.61 77C82.59 77.06 82.62 77.08 82.69 77.08L84.84 77.08ZM81.77 78.88C81.77 78.91 81.8 78.96 81.85 79.01C81.9 79.06 81.97 79.09 82.06 79.09L82.27 79.11C82.36 79.12 82.4 79.15 82.4 79.22C82.4 79.29 82.35 79.33 82.25 79.33L81.41 79.3L80.53 79.33C80.44 79.33 80.4 79.3 80.4 79.22C80.4 79.15 80.43 79.11 80.51 79.11L80.69 79.09C80.97 79.07 81.15 78.96 81.25 78.76L83.73 73.67C83.76 73.61 83.83 73.58 83.95 73.58C84.08 73.58 84.16 73.61 84.2 73.67L86.67 78.76C86.75 78.96 86.94 79.07 87.22 79.09L87.42 79.11C87.45 79.11 87.47 79.12 87.49 79.14C87.51 79.17 87.52 79.18 87.52 79.21C87.52 79.29 87.47 79.33 87.38 79.33L86.27 79.3L85.28 79.33C85.19 79.33 85.14 79.3 85.14 79.23C85.14 79.15 85.18 79.12 85.26 79.11L85.48 79.09C85.56 79.09 85.63 79.06 85.68 79.01C85.74 78.97 85.77 78.92 85.77 78.88C85.77 78.83 85.76 78.79 85.74 78.76L85.17 77.53C85.15 77.48 85.1 77.45 85.02 77.45L82.51 77.45C82.44 77.45 82.39 77.48 82.36 77.53L81.79 78.76C81.78 78.79 81.77 78.83 81.77 78.88ZM90.44 78.76C90.44 78.86 90.48 78.94 90.57 79C90.65 79.05 90.75 79.09 90.88 79.09L91.16 79.11C91.23 79.11 91.27 79.15 91.27 79.22C91.27 79.25 91.26 79.28 91.22 79.3C91.2 79.31 91.17 79.33 91.14 79.33L90.05 79.3L88.85 79.33C88.82 79.33 88.78 79.31 88.75 79.3C88.73 79.28 88.71 79.25 88.71 79.22C88.71 79.15 88.75 79.11 88.83 79.11L89.19 79.09C89.31 79.09 89.41 79.05 89.5 79C89.58 78.94 89.62 78.86 89.62 78.76L89.62 74.25C89.62 74.1 89.54 74.03 89.38 74.03L88.57 74.03C88.25 74.03 88.01 74.1 87.82 74.25C87.64 74.39 87.5 74.6 87.4 74.88C87.36 74.96 87.31 75 87.24 75C87.17 75 87.12 74.99 87.09 74.96C87.06 74.93 87.05 74.89 87.05 74.85L87.13 73.82C87.14 73.71 87.21 73.66 87.34 73.66L92.69 73.66C92.83 73.66 92.9 73.73 92.91 73.86L93.01 74.85C93.02 74.9 93.01 74.93 92.97 74.96C92.94 74.99 92.89 75 92.82 75C92.75 75 92.7 74.96 92.66 74.88C92.55 74.59 92.4 74.38 92.22 74.25C92.05 74.1 91.8 74.03 91.5 74.03L90.68 74.03C90.52 74.03 90.44 74.1 90.44 74.25L90.44 78.76ZM94.15 74.2C94.15 74 94 73.89 93.71 73.87L93.43 73.85C93.36 73.84 93.32 73.81 93.32 73.74C93.32 73.67 93.37 73.63 93.46 73.63L94.55 73.66L95.51 73.63C95.6 73.63 95.65 73.66 95.65 73.73C95.65 73.81 95.61 73.84 95.52 73.85L95.36 73.87C95.1 73.91 94.97 74.02 94.97 74.2L94.97 77.23C94.97 77.74 95.15 78.13 95.51 78.4C95.88 78.68 96.35 78.82 96.93 78.82C97.53 78.82 98 78.68 98.36 78.39C98.73 78.11 98.91 77.72 98.91 77.23L98.91 74.2C98.91 74.02 98.79 73.91 98.53 73.87L98.36 73.85C98.28 73.84 98.24 73.8 98.24 73.74C98.24 73.67 98.29 73.64 98.38 73.64L99.14 73.66L100.07 73.64C100.16 73.64 100.21 73.67 100.21 73.74C100.21 73.8 100.17 73.84 100.1 73.85L99.82 73.87C99.53 73.9 99.38 74 99.38 74.2L99.38 77.23C99.38 77.88 99.13 78.41 98.64 78.81C98.16 79.19 97.54 79.38 96.78 79.38C96.02 79.38 95.39 79.18 94.9 78.78C94.4 78.38 94.15 77.86 94.15 77.23L94.15 74.2ZM105.3 75.14C105.3 74.8 105.16 74.53 104.86 74.33C104.56 74.13 104.19 74.02 103.74 74.02L102.83 74.02C102.57 74.02 102.44 74.13 102.44 74.35L102.44 76.16C102.44 76.23 102.48 76.26 102.55 76.26L103.74 76.26C104.18 76.26 104.55 76.16 104.85 75.96C105.15 75.75 105.3 75.47 105.3 75.14ZM105.58 74.06C105.98 74.32 106.18 74.67 106.18 75.11C106.18 75.53 105.99 75.89 105.59 76.18C105.21 76.46 104.78 76.6 104.3 76.61L104.29 76.62C104.43 76.66 104.53 76.73 104.61 76.83L106.07 78.76C106.2 78.96 106.41 79.06 106.7 79.09L106.88 79.11C106.96 79.12 107 79.15 107 79.22C107 79.29 106.96 79.33 106.86 79.33C106.24 79.31 105.85 79.3 105.7 79.3C105.55 79.3 105.44 79.24 105.35 79.14L103.72 76.88C103.59 76.71 103.45 76.62 103.29 76.62L102.59 76.62C102.49 76.62 102.44 76.66 102.44 76.72L102.44 78.76C102.44 78.86 102.49 78.94 102.57 79C102.65 79.05 102.76 79.09 102.88 79.09L103.29 79.11C103.36 79.11 103.39 79.15 103.39 79.22C103.39 79.3 103.35 79.33 103.26 79.33L102.05 79.3L100.98 79.33C100.89 79.33 100.85 79.3 100.83 79.23C100.83 79.15 100.87 79.12 100.95 79.11L101.23 79.09C101.49 79.08 101.62 78.97 101.62 78.76L101.62 74.2C101.62 74 101.48 73.89 101.18 73.87L100.9 73.85C100.83 73.84 100.79 73.81 100.79 73.74C100.79 73.67 100.84 73.63 100.93 73.63L102.26 73.66L104.07 73.66C104.69 73.66 105.19 73.79 105.58 74.06ZM111.26 77.08C111.33 77.08 111.35 77.05 111.32 76.99L110.17 74.52L109.02 77C109 77.06 109.03 77.08 109.1 77.08L111.26 77.08ZM108.18 78.88C108.18 78.91 108.21 78.96 108.26 79.01C108.31 79.06 108.38 79.09 108.47 79.09L108.69 79.11C108.77 79.12 108.81 79.15 108.81 79.22C108.81 79.29 108.76 79.33 108.67 79.33L107.83 79.3L106.95 79.33C106.86 79.33 106.81 79.3 106.81 79.22C106.81 79.15 106.85 79.11 106.92 79.11L107.1 79.09C107.38 79.07 107.57 78.96 107.66 78.76L110.14 73.67C110.17 73.61 110.24 73.58 110.37 73.58C110.5 73.58 110.58 73.61 110.61 73.67L113.08 78.76C113.16 78.96 113.35 79.07 113.63 79.09L113.83 79.11C113.86 79.11 113.88 79.12 113.9 79.14C113.92 79.17 113.93 79.18 113.93 79.21C113.93 79.29 113.89 79.33 113.8 79.33L112.68 79.3L111.69 79.33C111.6 79.33 111.55 79.3 111.55 79.23C111.55 79.15 111.59 79.12 111.67 79.11L111.89 79.09C111.98 79.09 112.04 79.06 112.1 79.01C112.15 78.97 112.18 78.92 112.18 78.88C112.18 78.83 112.17 78.79 112.15 78.76L111.58 77.53C111.56 77.48 111.51 77.45 111.43 77.45L108.93 77.45C108.85 77.45 108.8 77.48 108.77 77.53L108.2 78.76C108.19 78.79 108.18 78.83 108.18 78.88ZM115.77 78.55C115.77 78.67 115.82 78.76 115.9 78.83C115.99 78.89 116.11 78.92 116.25 78.92L117.65 78.92C117.99 78.92 118.28 78.86 118.53 78.73C118.77 78.58 118.94 78.39 119.03 78.12C119.06 78.03 119.13 77.99 119.23 77.99C119.33 77.99 119.38 78.04 119.37 78.14L119.21 78.97C119.2 79.07 119.15 79.14 119.08 79.21C119 79.26 118.9 79.3 118.78 79.3L115.35 79.3L114.26 79.33C114.17 79.33 114.12 79.3 114.12 79.22C114.12 79.15 114.16 79.11 114.23 79.11L114.51 79.09C114.64 79.09 114.74 79.05 114.83 79C114.91 78.94 114.95 78.86 114.95 78.76L114.95 74.2C114.95 74 114.81 73.89 114.51 73.87L114.23 73.85C114.16 73.84 114.12 73.81 114.12 73.74C114.12 73.67 114.17 73.63 114.26 73.63L115.35 73.66L116.31 73.63C116.4 73.63 116.45 73.66 116.45 73.73C116.45 73.81 116.41 73.84 116.32 73.85L116.16 73.87C115.9 73.91 115.77 74.02 115.77 74.2L115.77 78.55ZM127.07 74.87C126.97 74.87 126.9 74.83 126.86 74.74C126.77 74.49 126.62 74.3 126.43 74.2C126.24 74.08 125.97 74.03 125.63 74.03L124.21 74.03C124.07 74.03 123.95 74.07 123.86 74.14C123.78 74.2 123.74 74.29 123.74 74.41L123.74 76.18C123.74 76.25 123.78 76.29 123.86 76.29L125.56 76.29C125.64 76.29 125.71 76.27 125.76 76.24C125.82 76.2 125.86 76.16 125.87 76.13C125.89 76.09 125.92 76.03 125.95 75.95L125.99 75.84C126.01 75.79 126.05 75.76 126.11 75.76C126.2 75.76 126.25 75.79 126.25 75.86L126.21 76.55L126.25 77.22C126.25 77.3 126.2 77.33 126.12 77.33C126.04 77.33 126 77.3 125.99 77.23L125.96 77.09C125.93 76.95 125.89 76.84 125.83 76.78C125.78 76.71 125.69 76.67 125.56 76.67L123.85 76.67C123.77 76.67 123.74 76.71 123.74 76.78L123.74 78.76C123.74 78.96 123.88 79.07 124.16 79.09L124.45 79.11C124.53 79.11 124.57 79.14 124.57 79.21C124.57 79.29 124.52 79.33 124.42 79.33L123.31 79.3L122.22 79.33C122.13 79.33 122.08 79.3 122.08 79.22C122.08 79.15 122.12 79.11 122.19 79.11L122.47 79.09C122.6 79.09 122.71 79.05 122.79 79C122.87 78.94 122.91 78.86 122.91 78.76L122.91 74.2C122.91 74 122.77 73.89 122.47 73.87L122.19 73.85C122.12 73.85 122.08 73.81 122.08 73.74C122.08 73.67 122.13 73.63 122.22 73.63L123.31 73.66L126.64 73.66C126.77 73.66 126.86 73.69 126.94 73.76C127.02 73.82 127.06 73.89 127.08 73.99L127.21 74.73C127.23 74.82 127.18 74.87 127.07 74.87ZM133.73 74.39C134.35 74.93 134.66 75.61 134.66 76.46C134.66 77.31 134.34 78.01 133.71 78.57C133.09 79.11 132.27 79.38 131.27 79.38C130.27 79.38 129.46 79.11 128.84 78.57C128.21 78.01 127.9 77.32 127.9 76.49C127.9 75.64 128.21 74.95 128.84 74.41C129.46 73.85 130.28 73.58 131.29 73.58C132.31 73.58 133.12 73.84 133.73 74.39ZM132.42 74.18C132.09 74.02 131.71 73.95 131.27 73.95C130.48 73.95 129.88 74.15 129.44 74.55C129.02 74.94 128.81 75.49 128.81 76.18C128.81 76.89 129 77.53 129.39 78.09C129.57 78.37 129.83 78.59 130.17 78.76C130.5 78.93 130.89 79.01 131.32 79.01C132.08 79.01 132.68 78.81 133.11 78.39C133.54 77.97 133.75 77.4 133.75 76.7C133.75 75.99 133.57 75.37 133.19 74.84C133 74.57 132.75 74.35 132.42 74.18ZM141.46 74.39C142.08 74.93 142.39 75.61 142.39 76.46C142.39 77.31 142.07 78.01 141.44 78.57C140.82 79.11 140 79.38 139 79.38C138 79.38 137.19 79.11 136.56 78.57C135.94 78.01 135.63 77.32 135.63 76.49C135.63 75.64 135.94 74.95 136.56 74.41C137.19 73.85 138 73.58 139.01 73.58C140.03 73.58 140.85 73.84 141.46 74.39ZM140.14 74.18C139.82 74.02 139.43 73.95 139 73.95C138.21 73.95 137.6 74.15 137.17 74.55C136.74 74.94 136.53 75.49 136.53 76.18C136.53 76.89 136.73 77.53 137.11 78.09C137.3 78.37 137.56 78.59 137.89 78.76C138.23 78.93 138.61 79.01 139.04 79.01C139.81 79.01 140.41 78.81 140.83 78.39C141.26 77.97 141.48 77.4 141.48 76.7C141.48 75.99 141.29 75.37 140.92 74.84C140.73 74.57 140.47 74.35 140.14 74.18ZM148.62 74.41C149.24 74.91 149.54 75.56 149.54 76.38C149.54 77.2 149.22 77.9 148.59 78.46C147.95 79.02 147.15 79.3 146.16 79.3L144.5 79.3L143.29 79.33C143.2 79.33 143.16 79.3 143.16 79.23C143.16 79.15 143.19 79.12 143.26 79.12L143.54 79.1C143.67 79.09 143.78 79.06 143.86 79.01C143.95 78.95 143.99 78.87 143.99 78.78L143.99 74.2C143.99 74 143.84 73.89 143.54 73.87L143.26 73.85C143.19 73.84 143.16 73.81 143.16 73.74C143.16 73.67 143.2 73.63 143.29 73.63L144.5 73.66L146.16 73.66C147.19 73.66 148.01 73.91 148.62 74.41ZM147.28 74.26C146.95 74.11 146.58 74.03 146.15 74.03L145.28 74.03C145.14 74.03 145.02 74.07 144.93 74.13C144.85 74.2 144.81 74.29 144.81 74.41L144.81 78.55C144.81 78.67 144.85 78.76 144.93 78.83C145.02 78.89 145.14 78.92 145.28 78.92L146.2 78.92C146.94 78.92 147.53 78.71 147.98 78.29C148.42 77.87 148.64 77.32 148.64 76.64C148.64 75.97 148.45 75.37 148.06 74.87C147.87 74.61 147.61 74.41 147.28 74.26Z" stroke="#000000" stroke-opacity="0" stroke-width="1.333333"/>
		<path id="path40" d="M95.02 28.99C91.47 29.67 83.65 27.98 80.43 26.91L74.63 24.56C73.71 24.11 70.03 21.82 69.3 21.66C69.66 23.05 69.97 24.02 70.68 25.2C72.46 28.27 75.46 30.96 79.26 32.23C82.7 33.38 84.26 33.91 87.94 34.39C89.87 34.64 89.6 34.52 91.47 37.22C92.42 38.59 92.97 39.13 93.06 39.57L98.89 39.57L98.98 38.8C99.04 38.04 99.26 36.9 99.35 36.14C101.46 36.14 102.69 36.18 104.74 36.64C106.43 37.01 107.9 37.76 108.36 37.86C108.36 38.37 108.21 38.96 107.99 39.57L112.84 39.57L112.29 38.01C115.35 36.68 117.01 36.14 120.93 36.14C121.67 36.14 121.49 36.79 121.76 38.26L121.95 39.57L127.65 39.57L130.72 35.36C131.27 34.55 131.21 34.66 132.43 34.46C135.75 33.96 138.66 33.41 141.3 32.3C142.74 31.71 143.59 31.36 144.85 30.58C146.26 29.7 146.72 29.41 147.86 28.26C149.17 26.91 151.35 23.98 151.35 21.66C150.49 22.05 149.76 22.62 148.93 23.08C144.64 25.43 139.52 27.74 134.21 28.48C131.73 28.82 129.21 29.14 126.39 29.14C125.78 29.14 125.75 28.67 125.66 28.33C124.58 24.27 122.59 19.77 117.93 17.77C114.22 16.19 112.69 16.37 108.73 16.37C103.18 16.37 98.49 19.89 96.56 24.18C95.94 25.47 95.15 27.63 95.02 28.99Z" fill="#2E404E" fill-opacity="1.000000" fill-rule="evenodd"/>
		<path id="path40" d="M80.43 26.91L74.63 24.56C73.71 24.11 70.03 21.82 69.3 21.66C69.66 23.05 69.97 24.02 70.68 25.2C72.46 28.27 75.46 30.96 79.26 32.23C82.7 33.38 84.26 33.91 87.94 34.39C89.87 34.64 89.6 34.52 91.47 37.22C92.42 38.59 92.97 39.13 93.06 39.57L98.89 39.57L98.98 38.8C99.04 38.04 99.26 36.9 99.35 36.14C101.46 36.14 102.69 36.18 104.74 36.64C106.43 37.01 107.9 37.76 108.36 37.86C108.36 38.37 108.21 38.96 107.99 39.57L112.84 39.57L112.29 38.01C115.35 36.68 117.01 36.14 120.93 36.14C121.67 36.14 121.49 36.79 121.76 38.26L121.95 39.57L127.65 39.57L130.72 35.36C131.27 34.55 131.21 34.66 132.43 34.46C135.75 33.96 138.66 33.41 141.3 32.3C142.74 31.71 143.59 31.36 144.85 30.58C146.26 29.7 146.72 29.41 147.86 28.26C149.17 26.91 151.35 23.98 151.35 21.66C150.49 22.05 149.76 22.62 148.93 23.08C144.64 25.43 139.52 27.74 134.21 28.48C131.73 28.82 129.21 29.14 126.39 29.14C125.78 29.14 125.75 28.67 125.66 28.33C124.58 24.27 122.59 19.77 117.93 17.77C114.22 16.19 112.69 16.37 108.73 16.37C103.18 16.37 98.49 19.89 96.56 24.18C95.94 25.47 95.15 27.63 95.02 28.99C91.47 29.67 83.65 27.98 80.43 26.91Z" stroke="#000000" stroke-opacity="0" stroke-width="1.333333"/>
	</g>
</svg>
